<svg xmlns="http://www.w3.org/2000/svg" width="245.366" height="278.525" viewBox="0 0 245.366 278.525">
  <g id="create-account" transform="translate(-565.995 -32.189)">
    <g id="Group_452" data-name="Group 452" transform="translate(614.966 97.003)">
      <g id="Group_448" data-name="Group 448">
        <g id="Group_447" data-name="Group 447">
          <path id="Path_707" data-name="Path 707" d="M746.447,133.275l1.446,89.75a4.449,4.449,0,0,1-2.19,3.906L647.2,284.99a4.451,4.451,0,0,1-6.711-3.763l-1.431-88.784a4.452,4.452,0,0,1,2.162-3.89l98.488-59.026A4.451,4.451,0,0,1,746.447,133.275Z" transform="translate(-639.057 -128.889)" fill="#4f4f99"/>
          <path id="Path_708" data-name="Path 708" d="M749.389,134.91l1.446,89.75a4.449,4.449,0,0,1-2.19,3.906l-98.5,58.059a4.451,4.451,0,0,1-6.711-3.763L642,194.079a4.452,4.452,0,0,1,2.162-3.89l98.489-59.026A4.452,4.452,0,0,1,749.389,134.91Z" transform="translate(-640.027 -129.428)" fill="#5e5ebc"/>
          <path id="Path_709" data-name="Path 709" d="M746.259,149.34l1.239,76.9a3.816,3.816,0,0,1-1.877,3.347l-88.5,52.489a3.814,3.814,0,0,1-5.75-3.224l-2.049-76a3.812,3.812,0,0,1,1.853-3.333l89.311-53.386A3.813,3.813,0,0,1,746.259,149.34Z" transform="translate(-642.442 -134.393)" fill="#4f4f99"/>
        </g>
      </g>
      <g id="Group_451" data-name="Group 451" transform="translate(6.87 97.238)">
        <g id="Group_449" data-name="Group 449">
          <path id="Path_710" data-name="Path 710" d="M832.4,323.136l-77.549-45.2a4.452,4.452,0,0,0-4.479,0l-98.852,57.464a4.451,4.451,0,0,0,0,7.694l76.714,44.717a4.453,4.453,0,0,0,4.451.019l99.688-56.978A4.451,4.451,0,0,0,832.4,323.136Z" transform="translate(-649.307 -275.072)" fill="#5e5ebc"/>
          <path id="Path_711" data-name="Path 711" d="M832.415,319.771l-77.549-45.2a4.451,4.451,0,0,0-4.478,0L651.535,332.03a4.452,4.452,0,0,0,0,7.694l76.714,44.716a4.451,4.451,0,0,0,4.451.019l99.688-56.978A4.451,4.451,0,0,0,832.415,319.771Z" transform="translate(-649.311 -273.962)" fill="#9494f7"/>
          <path id="Path_712" data-name="Path 712" d="M839.386,364.834l-25.078-14.618a1.439,1.439,0,0,0-1.448,0L780.894,368.8a1.44,1.44,0,0,0,0,2.488l24.807,14.46a1.442,1.442,0,0,0,1.44.006l32.236-18.426A1.439,1.439,0,0,0,839.386,364.834Z" transform="translate(-692.46 -299.042)" fill="#dfe2fc"/>
        </g>
        <g id="Group_450" data-name="Group 450" transform="translate(20.186 10.324)">
          <path id="Path_713" data-name="Path 713" d="M823.075,329.878l22.963-13.27a2.256,2.256,0,0,0,.824-3.082h0a2.255,2.255,0,0,0-3.081-.824l-25.215,14.572" transform="translate(-725.303 -296.961)" fill="#5e5ebc"/>
          <path id="Path_714" data-name="Path 714" d="M782.91,335.743,715.836,374.5a2.256,2.256,0,0,0-.824,3.082h0a2.255,2.255,0,0,0,3.081.824l69.327-40.063" transform="translate(-691.058 -304.658)" fill="#5e5ebc"/>
          <path id="Path_715" data-name="Path 715" d="M814.872,323.4l22.963-13.27a2.255,2.255,0,0,0,.824-3.081h0a2.255,2.255,0,0,0-3.081-.824l-25.215,14.572" transform="translate(-722.598 -294.823)" fill="#5e5ebc"/>
          <path id="Path_716" data-name="Path 716" d="M774.707,329.26l-67.074,38.761a2.256,2.256,0,0,0-.824,3.082h0a2.255,2.255,0,0,0,3.081.824l69.327-40.062" transform="translate(-688.353 -302.52)" fill="#5e5ebc"/>
          <path id="Path_717" data-name="Path 717" d="M805.735,318.207,828.7,304.937a2.255,2.255,0,0,0,.824-3.082h0a2.255,2.255,0,0,0-3.081-.824L801.225,315.6" transform="translate(-719.585 -293.113)" fill="#5e5ebc"/>
          <path id="Path_718" data-name="Path 718" d="M765.57,324.071,698.5,362.832a2.255,2.255,0,0,0-.824,3.081h0a2.256,2.256,0,0,0,3.081.824l69.326-40.063" transform="translate(-685.34 -300.809)" fill="#5e5ebc"/>
          <path id="Path_719" data-name="Path 719" d="M797.042,312.229,820,298.96a2.255,2.255,0,0,0,.824-3.081h0a2.255,2.255,0,0,0-3.081-.824l-25.215,14.572" transform="translate(-716.719 -291.142)" fill="#5e5ebc"/>
          <path id="Path_720" data-name="Path 720" d="M756.877,318.094,689.8,356.855a2.255,2.255,0,0,0-.824,3.082h0a2.255,2.255,0,0,0,3.081.824L761.387,320.7" transform="translate(-682.474 -298.839)" fill="#5e5ebc"/>
          <path id="Path_721" data-name="Path 721" d="M787.788,306.844l22.963-13.27a2.256,2.256,0,0,0,.824-3.082h0a2.256,2.256,0,0,0-3.081-.824L783.278,304.24" transform="translate(-713.668 -289.366)" fill="#5e5ebc"/>
          <path id="Path_722" data-name="Path 722" d="M747.623,312.709,680.55,351.47a2.256,2.256,0,0,0-.824,3.082h0a2.256,2.256,0,0,0,3.081.824l69.326-40.063" transform="translate(-679.423 -297.063)" fill="#5e5ebc"/>
        </g>
      </g>
      <path id="Path_723" data-name="Path 723" d="M750.71,274.563l-98.852,57.465a4.451,4.451,0,0,0,0,7.694l76.714,44.716a4.453,4.453,0,0,0,4.451.019l.727-.416,20.011-110A4.444,4.444,0,0,0,750.71,274.563Z" transform="translate(-642.548 -176.727)" fill="#fff" opacity="0.14"/>
      <path id="Path_724" data-name="Path 724" d="M697.162,189.412l-11.012,92.775,21.292-12.628,11.672-93.269Z" transform="translate(-654.585 -144.519)" fill="#424284"/>
      <path id="Path_725" data-name="Path 725" d="M750.007,162.1,739.9,254.5l7.849-4.655,10.585-92.725" transform="translate(-672.309 -138.197)" fill="#424284"/>
    </g>
    <g id="Group_453" data-name="Group 453" transform="translate(597.196 187.167)">
      <path id="Path_726" data-name="Path 726" d="M649.654,269.452a10.421,10.421,0,0,0-2.93,2.654,14.2,14.2,0,0,0,.154-1.983c0-5.981-4.245-8.428-9.435-5.437-3.664,2.112-6.851,6.4-8.411,10.836-1.006-1.19-2.739-1.369-4.7-.238A12.443,12.443,0,0,0,618.71,285a6.576,6.576,0,0,0,.053.808c-.018.01-.036.017-.053.027a13.649,13.649,0,0,0-6.164,10.659c0,3.908,2.774,5.506,6.164,3.552l30.943-17.637a12.443,12.443,0,0,0,5.62-9.717C655.273,269.128,652.744,267.671,649.654,269.452Z" transform="translate(-612.546 -263.409)" fill="#4f4f99"/>
      <path id="Path_727" data-name="Path 727" d="M651.637,270.59a10.43,10.43,0,0,0-2.93,2.654,14.179,14.179,0,0,0,.154-1.983c0-5.981-4.245-8.429-9.435-5.437-3.665,2.112-6.851,6.4-8.411,10.836-1.006-1.19-2.739-1.369-4.7-.238a12.443,12.443,0,0,0-5.619,9.717,6.7,6.7,0,0,0,.052.808c-.017.01-.035.017-.052.027a13.65,13.65,0,0,0-6.164,10.659c0,3.908,2.774,5.506,6.164,3.552l30.943-17.638a12.443,12.443,0,0,0,5.619-9.717C657.256,270.266,654.727,268.809,651.637,270.59Z" transform="translate(-613.2 -263.784)" fill="#fff"/>
    </g>
    <g id="Group_454" data-name="Group 454" transform="translate(565.995 169.941)">
      <path id="Path_728" data-name="Path 728" d="M603.1,243.752a10.431,10.431,0,0,0-2.93,2.654,14.187,14.187,0,0,0,.154-1.983c0-5.981-4.245-8.429-9.435-5.437-3.664,2.112-6.851,6.395-8.411,10.835-1.006-1.19-2.739-1.369-4.7-.238a12.443,12.443,0,0,0-5.619,9.717,6.575,6.575,0,0,0,.053.808c-.018.01-.036.017-.053.027a13.648,13.648,0,0,0-6.164,10.659c0,3.908,2.774,5.506,6.164,3.552L603.1,256.708a12.443,12.443,0,0,0,5.62-9.717C608.722,243.428,606.193,241.971,603.1,243.752Z" transform="translate(-565.995 -237.709)" fill="#4f4f99"/>
      <path id="Path_729" data-name="Path 729" d="M605.086,244.89a10.431,10.431,0,0,0-2.93,2.654,14.179,14.179,0,0,0,.154-1.983c0-5.981-4.245-8.428-9.435-5.437-3.665,2.113-6.851,6.395-8.411,10.835-1.006-1.19-2.739-1.369-4.7-.238a12.443,12.443,0,0,0-5.62,9.717,6.7,6.7,0,0,0,.052.808c-.017.01-.035.017-.052.027a13.647,13.647,0,0,0-6.164,10.658c0,3.908,2.774,5.506,6.164,3.552l30.943-17.638a12.442,12.442,0,0,0,5.619-9.717C610.705,244.567,608.176,243.109,605.086,244.89Z" transform="translate(-566.649 -238.084)" fill="#fff"/>
    </g>
    <g id="Group_455" data-name="Group 455" transform="translate(585.112 125.95)">
      <path id="Path_730" data-name="Path 730" d="M620.553,181.048a7.579,7.579,0,0,0-1.9-3.62l3.823-1.8-2.2-1.125-3.135-1.215-1.4,2.554a7.832,7.832,0,0,0-3.811.259l2.2-2.9-2.2-1.125-4.194,2.418v3.745a23.311,23.311,0,0,0-4.849,4.826l-.729-1.173-2.2-1.125-2.083,3.418,2.835,2.2a26.116,26.116,0,0,0-2.9,7.764l-3.305,1.9v4.679l3.035-1.749a8.105,8.105,0,0,0,2.486,5.465l-1.44,2.623,2.2,1.125.815-.124,1.281-2.3a8.7,8.7,0,0,0,4.849-.763v3.329l2.2,1.125,2-3.543v-3.605A24.816,24.816,0,0,0,615.8,198.1l2.381,1.849,2.2,1.125-.668-4.79-1.853-1.456a24.649,24.649,0,0,0,2.97-9.257l2.106-1.214,2.2-3.553-2.2-1.125Zm-11.246,17.078c-3.3,1.9-6,.346-6-3.455a13.276,13.276,0,0,1,6-10.368c3.3-1.9,6-.346,6,3.456A13.276,13.276,0,0,1,609.307,198.126Z" transform="translate(-594.516 -172.076)" fill="#4f4f99"/>
      <path id="Path_731" data-name="Path 731" d="M623.828,182.727a7.579,7.579,0,0,0-1.9-3.62l1.628-2.927-3.135-1.215-1.4,2.554a7.842,7.842,0,0,0-3.811.259v-4.023l-4.194,2.418v3.745a23.325,23.325,0,0,0-4.849,4.826l-2.924-2.3-2.083,3.418,2.835,2.2a26.1,26.1,0,0,0-2.9,7.764l-3.306,1.906v4.678l3.035-1.749a8.1,8.1,0,0,0,2.486,5.465l-1.44,2.623,3.01,1,1.281-2.3a8.7,8.7,0,0,0,4.849-.763v3.329l4.194-2.418v-3.605a24.788,24.788,0,0,0,3.867-4.215l2.381,1.849,1.527-3.664-1.853-1.456a24.649,24.649,0,0,0,2.97-9.257l2.106-1.213v-4.679Zm-11.246,17.078c-3.3,1.9-6,.346-6-3.455a13.275,13.275,0,0,1,6-10.368c3.3-1.9,6-.346,6,3.456A13.277,13.277,0,0,1,612.582,199.805Z" transform="translate(-595.596 -172.63)" fill="#9494f7"/>
      <path id="Path_732" data-name="Path 732" d="M594.516,207.852l2.2,1.125v4.679l-2.2-1.125Z" transform="translate(-594.516 -183.873)" fill="#7675e3"/>
    </g>
    <g id="Group_456" data-name="Group 456" transform="translate(618.416 81.92)">
      <path id="Path_733" data-name="Path 733" d="M680.8,118.995a10.643,10.643,0,0,0-2.673-5.087l5.374-2.532-3.085-1.582-4.406-1.708-1.971,3.589a11.015,11.015,0,0,0-5.356.364l3.085-4.071-3.085-1.582-5.894,3.4v5.264a32.772,32.772,0,0,0-6.815,6.782l-1.024-1.648-3.085-1.582-2.926,4.8,3.985,3.095a36.677,36.677,0,0,0-4.071,10.911l-4.645,2.678v6.576l4.266-2.459c.351,3.434,1.605,6.041,3.494,7.681l-2.024,3.687,3.085,1.582,1.146-.174,1.8-3.237a12.223,12.223,0,0,0,6.815-1.073v4.678l3.085,1.582,2.81-4.979v-5.067a34.9,34.9,0,0,0,5.434-5.923l3.346,2.6,3.085,1.582-.94-6.732-2.6-2.047a34.66,34.66,0,0,0,4.174-13.01l2.959-1.706,3.085-4.993-3.085-1.582Zm-15.8,24c-4.636,2.672-8.428.486-8.428-4.856s3.792-11.9,8.427-14.572,8.427-.486,8.428,4.857S669.626,140.326,664.992,143Z" transform="translate(-644.204 -106.386)" fill="#4f4f99"/>
      <path id="Path_734" data-name="Path 734" d="M685.4,121.355a10.649,10.649,0,0,0-2.673-5.087l2.288-4.113-4.406-1.708-1.971,3.589a11.015,11.015,0,0,0-5.356.364v-5.653l-5.894,3.4v5.264a32.785,32.785,0,0,0-6.815,6.782l-4.109-3.23-2.927,4.8,3.985,3.095a36.677,36.677,0,0,0-4.071,10.911l-4.645,2.678v6.576l4.266-2.459c.351,3.434,1.605,6.041,3.494,7.681l-2.024,3.687,4.23,1.408,1.8-3.237a12.229,12.229,0,0,0,6.815-1.073v4.678l5.895-3.4v-5.067a34.873,34.873,0,0,0,5.435-5.923l3.346,2.6,2.145-5.15-2.6-2.047a34.661,34.661,0,0,0,4.174-13.01l2.959-1.706v-6.575Zm-15.8,24c-4.635,2.672-8.428.486-8.428-4.856s3.792-11.9,8.427-14.572,8.427-.486,8.427,4.856S674.229,142.685,669.594,145.357Z" transform="translate(-645.722 -107.164)" fill="#9494f7"/>
      <path id="Path_735" data-name="Path 735" d="M644.2,156.666l3.085,1.582v6.576l-3.085-1.582Z" transform="translate(-644.204 -122.965)" fill="#7675e3"/>
    </g>
    <g id="Group_458" data-name="Group 458" transform="translate(673.663 32.189)">
      <path id="Path_736" data-name="Path 736" d="M726.631,90.568V193.439a4.745,4.745,0,0,0,7.114,4.111l93.044-53.626a4.745,4.745,0,0,0,2.375-4.111V36.94a4.745,4.745,0,0,0-7.114-4.111L729.006,86.457A4.745,4.745,0,0,0,726.631,90.568Z" transform="translate(-726.631 -32.189)" fill="#4f4f99" fill-rule="evenodd"/>
      <path id="Path_737" data-name="Path 737" d="M732.094,93.714V195.946a4.745,4.745,0,0,0,7.115,4.111l93.044-53.626a4.744,4.744,0,0,0,2.375-4.111V40.086a4.745,4.745,0,0,0-7.115-4.111L734.469,89.6A4.744,4.744,0,0,0,732.094,93.714Z" transform="translate(-728.432 -33.226)" fill="#dfe2fc" fill-rule="evenodd"/>
      <path id="Path_738" data-name="Path 738" d="M783.278,99.587V129.17a1.63,1.63,0,0,0,2.444,1.412l31.957-18.419a1.629,1.629,0,0,0,.816-1.412V81.167a1.63,1.63,0,0,0-2.444-1.412L784.094,98.175A1.629,1.629,0,0,0,783.278,99.587Z" transform="translate(-745.31 -47.801)" fill="#9494f7" fill-rule="evenodd"/>
      <path id="Path_739" data-name="Path 739" d="M752.012,186.194h0a2.125,2.125,0,0,0,3.187,1.841l76.624-44.162a2.126,2.126,0,0,0,1.064-1.841h0a2.126,2.126,0,0,0-3.187-1.842l-76.624,44.162A2.126,2.126,0,0,0,752.012,186.194Z" transform="translate(-735 -67.706)" fill="#fff" fill-rule="evenodd"/>
      <path id="Path_740" data-name="Path 740" d="M752.012,201.457h0A2.125,2.125,0,0,0,755.2,203.3l76.624-44.162a2.125,2.125,0,0,0,1.064-1.841h0a2.126,2.126,0,0,0-3.187-1.842l-76.624,44.162A2.126,2.126,0,0,0,752.012,201.457Z" transform="translate(-735 -72.739)" fill="#fff" fill-rule="evenodd"/>
      <path id="Path_741" data-name="Path 741" d="M752.012,216.722h0a2.125,2.125,0,0,0,3.187,1.841L831.823,174.4a2.125,2.125,0,0,0,1.064-1.841h0a2.126,2.126,0,0,0-3.187-1.842L753.076,214.88A2.126,2.126,0,0,0,752.012,216.722Z" transform="translate(-735 -77.772)" fill="#fff" fill-rule="evenodd"/>
      <g id="Group_457" data-name="Group 457" transform="translate(46.484 46.514)">
        <path id="Path_742" data-name="Path 742" d="M806.677,112.949c-2.561,1.476-4.656.269-4.656-2.683a10.308,10.308,0,0,1,4.656-8.051c2.56-1.477,4.656-.269,4.656,2.683A10.309,10.309,0,0,1,806.677,112.949Z" transform="translate(-797.974 -101.585)" fill="#4f4f99"/>
        <path id="Path_743" data-name="Path 743" d="M795.983,133.05v1.511a1.369,1.369,0,0,0,2.052,1.186l16.574-9.553a1.366,1.366,0,0,0,.685-1.185h0a6.158,6.158,0,0,0-9.232-5.335l-3.522,2.03A13.1,13.1,0,0,0,795.983,133.05Z" transform="translate(-795.983 -107.275)" fill="#4f4f99" fill-rule="evenodd"/>
      </g>
    </g>
    <g id="Group_462" data-name="Group 462" transform="translate(749.583 121.164)">
      <g id="Group_460" data-name="Group 460">
        <g id="Group_459" data-name="Group 459">
          <path id="Path_744" data-name="Path 744" d="M844,191.21v24.459l41.263-23.782V167.429Z" transform="translate(-841.253 -165.757)" fill="#fd8ebe" fill-rule="evenodd"/>
          <path id="Path_745" data-name="Path 745" d="M842.65,202.088l-2.751-1.67v24.457l2.751,1.671Z" transform="translate(-839.899 -176.635)" fill="#e03d93" fill-rule="evenodd"/>
          <path id="Path_746" data-name="Path 746" d="M883.913,166.607,842.65,190.388l-2.751-1.67,41.263-23.783Z" transform="translate(-839.899 -164.935)" fill="#ff55a6" fill-rule="evenodd"/>
        </g>
      </g>
      <g id="Group_461" data-name="Group 461" transform="translate(29.428 23.085)">
        <path id="Path_747" data-name="Path 747" d="M917.379,218.393v11.474l-2.488,1.434-19.908-14.342V222.7l-2.488,1.434-4.977-17.211,4.977-6.108,2.488-1.434v6.108Z" transform="translate(-885.029 -199.376)" fill="#4f4f99"/>
        <path id="Path_748" data-name="Path 748" d="M913.666,220.533v11.474L891.27,219.1v5.737L883.8,209.058l7.466-7.542v6.108Z" transform="translate(-883.805 -200.082)" fill="#fff"/>
      </g>
    </g>
    <g id="Group_463" data-name="Group 463" transform="translate(763.219 44.807)">
      <path id="Path_750" data-name="Path 750" d="M897.35,57.057a10.432,10.432,0,0,0-2.93,2.654,14.214,14.214,0,0,0,.153-1.983c0-5.981-4.245-8.428-9.435-5.437-3.664,2.113-6.851,6.395-8.411,10.835-1.005-1.19-2.739-1.369-4.7-.238a12.443,12.443,0,0,0-5.62,9.717,6.564,6.564,0,0,0,.053.807l-.053.027A13.647,13.647,0,0,0,860.243,84.1c0,3.908,2.774,5.506,6.164,3.552L897.35,70.013a12.443,12.443,0,0,0,5.62-9.717C902.97,56.734,900.441,55.276,897.35,57.057Z" transform="translate(-860.243 -51.014)" fill="#4f4f99"/>
      <path id="Path_751" data-name="Path 751" d="M899.333,58.2a10.42,10.42,0,0,0-2.93,2.654,14.205,14.205,0,0,0,.154-1.983c0-5.981-4.245-8.428-9.435-5.437-3.664,2.113-6.851,6.4-8.411,10.835-1.006-1.19-2.739-1.369-4.7-.237a12.441,12.441,0,0,0-5.62,9.717,6.565,6.565,0,0,0,.053.807c-.018.01-.036.017-.053.027a13.647,13.647,0,0,0-6.164,10.658c0,3.908,2.774,5.506,6.164,3.552l30.943-17.637a12.443,12.443,0,0,0,5.619-9.717C904.952,57.872,902.423,56.414,899.333,58.2Z" transform="translate(-860.897 -51.39)" fill="#fff"/>
    </g>
    <g id="Group_464" data-name="Group 464" transform="translate(575.003 231.132)">
      <path id="Path_752" data-name="Path 752" d="M634.524,414.406,610,400.111,579.434,417.88l24.277,14.151L632.636,415.5C633.48,415.016,634.524,414.406,634.524,414.406Z" transform="translate(-579.434 -352.449)" fill="#dfe2fc"/>
      <path id="Path_753" data-name="Path 753" d="M634.524,384.407,610,370.112l-30.567,17.769,24.277,14.151L632.636,385.5C633.48,385.017,634.524,384.407,634.524,384.407Z" transform="translate(-579.434 -342.557)" fill="#9494f7"/>
      <path id="Path_754" data-name="Path 754" d="M634.524,390.595,610,376.3l-30.567,17.769,24.277,14.151,28.925-16.533C633.48,391.2,634.524,390.595,634.524,390.595Z" transform="translate(-579.434 -344.598)" fill="#444230"/>
      <path id="Path_755" data-name="Path 755" d="M626.561,355.215a1.631,1.631,0,0,0-1.214-.741c-1.871-.3-3.765,2.068-5.715,3.635-.447.359-1.936,1.572-2.433.225-.168-.454.844-2.829,1.044-3.475q1.26-4.068,2.306-8.48c.576-2.438,1.066-5.332-.047-7.1a1.8,1.8,0,0,0-1.56-.963,3.953,3.953,0,0,0-2.164,1.248,26.014,26.014,0,0,0-3.749,4.285,3.055,3.055,0,0,1-1.953,1.5c-1,.06-1.6-1.082-1.932-2.192-.6-2.011-.851-4.288-1.4-6.538a12.113,12.113,0,0,0-3.308-6.327,4.76,4.76,0,0,0-5.168-.868,6.448,6.448,0,0,0-3.339,4.955,13.516,13.516,0,0,0,1.422,7.611c.993,2.136,2.222,4,3.02,5.995.44,1.1.7,2.5-.082,3.464a3.156,3.156,0,0,1-2.45.963,23.55,23.55,0,0,0-5.956.927,5.62,5.62,0,0,0-2.808,1.5,3.394,3.394,0,0,0-.749,2.527c.241,2.642,2.766,4.19,4.986,5.268a76.366,76.366,0,0,0,7.546,3.2c.567.2,2.82.621,2.98,1.117.474,1.469-1.393,2.426-1.961,2.723-2.544,1.326-5.7,2.083-7.1,4.721a3.786,3.786,0,0,0-.544,2.135,2.681,2.681,0,0,0,1.9,1.967c2.984,1.208,6.942.56,10.294-.157a58.8,58.8,0,0,0,7.579-2.2l1.276-.473,1.017-1.176c1.869-2.194,3.66-4.473,5.307-6.845,2.03-2.921,4.207-6.3,5-9.672A4.084,4.084,0,0,0,626.561,355.215Z" transform="translate(-582.362 -329.002)" fill="#0eaaa6"/>
      <path id="Path_756" data-name="Path 756" d="M622.883,374.943a1.043,1.043,0,0,0-.84-.346c-1.209,0-2.166,1.68-3.238,2.863-.245.271-1.063,1.184-1.511.385a9.437,9.437,0,0,1,.311-2.294q.387-2.691.605-5.575c.119-1.595.139-3.467-.739-4.468a1.148,1.148,0,0,0-1.079-.451,2.516,2.516,0,0,0-1.239,1,16.554,16.554,0,0,0-1.935,3.076c-.255.519-.617,1.038-1.081,1.139-.623.137-1.117-.521-1.436-1.188-.578-1.207-.965-2.617-1.536-3.98a7.725,7.725,0,0,0-2.717-3.657,3.036,3.036,0,0,0-3.344-.03,4.115,4.115,0,0,0-1.609,3.457,8.621,8.621,0,0,0,1.657,4.654c.839,1.247,1.8,2.3,2.5,3.476a2.236,2.236,0,0,1,.295,2.192,2.017,2.017,0,0,1-1.448.852,15.005,15.005,0,0,0-3.661,1.18,3.585,3.585,0,0,0-1.62,1.224A2.163,2.163,0,0,0,599,380.12c.416,1.641,2.162,2.365,3.669,2.822a48.794,48.794,0,0,0,5.075,1.26c.378.072,1.84.109,1.99.406.446.879-.635,1.668-.963,1.912-1.471,1.091-3.385,1.883-4,3.685a2.408,2.408,0,0,0-.129,1.4,1.709,1.709,0,0,0,1.391,1.05c2,.464,4.431-.341,6.472-1.128a37.514,37.514,0,0,0,4.557-2.143l.757-.426.523-.843c.958-1.569,1.859-3.184,2.66-4.844a19.466,19.466,0,0,0,2.184-6.6A2.608,2.608,0,0,0,622.883,374.943Z" transform="translate(-585.862 -339.53)" fill="#10847e"/>
      <path id="Path_757" data-name="Path 757" d="M615.654,429.172V409.065l30.814-17.625v20.107l-30.814,17.625" transform="translate(-591.377 -349.59)" fill="#5e5ebc"/>
      <path id="Path_758" data-name="Path 758" d="M579.434,396.623c.186.251,0,20.107,0,20.107l24.277,14.151V410.774Z" transform="translate(-579.434 -351.299)" fill="#4f4f99"/>
    </g>
  </g>
</svg>
